DataType=double
version=3
OpenSimVersion=4.4-2022-10-11-798caa840
endheader
time	ground_force_r_vx	ground_force_r_vy	ground_force_r_vz	ground_force_r_px	ground_force_r_py	ground_force_r_pz	ground_force_l_vx	ground_force_l_vy	ground_force_l_vz	ground_force_l_px	ground_force_l_py	ground_force_l_pz	ground_torque_r_x	ground_torque_r_y	ground_torque_r_z	ground_torque_l_x	ground_torque_l_y	ground_torque_l_z
1.41	-4.523342891782236	4.019440049908185	1.365374356530394	1.43780939348381	0	-0.3819082291965533	118.9995604979824	883.1130802011974	36.8319679591726	0.953448563469429	0	-0.5632713027229742	0	-8.580818278147717e-10	0	0	0.686000193108228	0
1.415	-7.327712231830121	8.133083223636604	4.006920809188026	1.439371286233359	0	-0.3831936959924701	122.4112301233025	871.0812977124103	38.03833227383284	0.955350015088863	0	-0.5616171376724619	0	-4.823978549950425e-09	0	0	0.2568070689790005	0
1.42	-7.908961244800099	16.05199744848201	12.51500259841442	1.439620020795945	0	-0.3844249276928282	125.7734470964492	854.0715570629983	36.33678862259114	0.9574250187977352	0	-0.5598704015506062	0	-1.901927859648822e-08	0	0	-0.04772616207294789	0
1.425	3.644751918911876	29.24642112700197	23.07182852711898	1.4393494730967	0	-0.3846470250824245	129.2035938312176	832.3998785432213	33.8703765148571	0.9596607586126396	0	-0.5580717825300491	0	-6.314646583405192e-07	0	0	-0.2395947009634796	0
1.43	19.01302232209536	49.77255765228801	29.31153476109957	1.439786170333006	0	-0.3846101800266037	132.6587222756517	806.3127119428698	31.42637567788522	0.962051407039614	0	-0.5562330579201359	0	-6.152539306469862e-06	0	0	-0.3653375859380503	0
1.435	26.26230197012842	96.30791486527204	35.73176359559361	1.440306841340972	0	-0.3847693150932869	135.4811297949099	776.1556588376884	28.74556190127466	0.9645628089305314	0	-0.554450842820863	0	-3.662479104349359e-05	0	0	-0.392332404336873	0
1.44	11.17369601041404	173.0986301852309	35.23333437958068	1.440548263205304	0	-0.3850782337224622	137.1991769125488	742.1241258827037	26.30856582569699	0.9671560612727133	0	-0.5528162394141218	0	-0.0001687858229431072	0	0	-0.2050059068295198	0
1.445	-6.460283068848511	251.9640732422672	33.00883416568006	1.440892306532033	0	-0.3853194910813637	138.0659940601617	703.7457761033647	24.39735862442745	0.9698638289733116	0	-0.5512639524099917	0	-0.0006850694891014086	0	0	0.1830137343446836	0
1.45	-22.47045170607948	318.3511046553645	29.42660160420733	1.441329147221686	0	-0.3854989124872444	137.6618659438665	660.5789709727686	22.27127920420516	0.9727457422085806	0	-0.549808162648126	0	-0.00238820255931671	0	0	0.5352142806550617	0
1.455	-39.58334453195578	373.1066656277139	22.36742025766751	1.441794381151413	0	-0.3856585917269119	136.4754930335355	611.423794292004	19.82801967287223	0.9758594425533287	0	-0.5486331198804792	0	-0.006949467199063974	0	0	0.7225196511396916	0
1.46	-53.76394731444639	418.8976636633487	17.0231431349562	1.442333716569633	0	-0.3857397395797234	134.087502117391	552.5017958106019	17.3551442136002	0.9794185760500773	0	-0.5478269706078636	0	-0.01728808791826708	0	0	0.778587853332489	0
1.465	-66.44325935092085	459.3155124258698	12.81158185410087	1.442960312073129	0	-0.3857374060239078	129.595720194688	480.6459772769849	14.11709256202928	0.9838736140407575	0	-0.5474002414704182	0	-0.03753439886600063	0	0	0.7235413537384243	0
1.47	-75.21411690956437	497.9473559327697	9.793816987258289	1.443759757722201	0	-0.385615149986291	124.2930278506467	401.3360038648723	10.34160544316787	0.9896398303565674	0	-0.5474875241908497	0	-0.07066467649553054	0	0	0.5704078754032587	0
1.475	-81.27224323692047	536.8358285657257	7.289957214717885	1.444794759756854	0	-0.385328867472477	115.9207464284925	321.5096734338788	6.23812015595931	0.9975708265489402	0	-0.5475430113005967	0	-0.113018702196225	0	0	0.3161874963313984	0
1.48	-86.24757592053743	576.1563063140153	4.926482838843178	1.446101516205548	0	-0.3848423569003832	103.8077329099417	250.071437341574	1.766147907650754	1.007894471815011	0	-0.5474065429623679	0	-0.1443275574502501	0	0	0.08544319645503573	0
1.485	-91.21386539167527	614.1929151771884	1.469505799959751	1.447601949817996	0	-0.384204984971247	95.95514011556848	210.1133705491947	-2.757527614709403	1.014298340179085	0	-0.5453436220996796	0	-0.1306430318683756	0	0	0.001820615615550469	0
1.49	-96.64768876230411	647.901302728867	-3.264933782220937	1.449189894171599	0	-0.3834851506515098	91.30113438381136	195.3707295455125	-5.700556609060779	1.01547299581577	0	-0.5433140990859758	0	-0.05890151961011547	0	0	-2.922331077126472e-05	0
1.495	-101.9641123886548	678.6899532409184	-8.71557841985925	1.451327796389805	0	-0.3823932763914179	84.04621897054183	190.1128051879458	-8.571267617581569	1.015772377011625	0	-0.5432532457323413	0	0.06925145008377243	0	0	-0.0001651469292802688	0
1.5	-107.1892441463102	709.7468272306239	-14.7700160326046	1.454728481096162	0	-0.3804889412838937	74.48992933128024	186.21031122791	-11.58450952025248	1.016040599040462	0	-0.5432995850601315	0	0.2987284846009288	0	0	-0.0003368906105709613	0
1.505	-112.5834379963688	735.4652567371062	-22.07456190147629	1.459022122471494	0	-0.3780555053380756	66.3488718268212	181.0603955420474	-12.28733441389528	1.01645522495269	0	-0.543267993022258	0	0.618358825991379	0	0	-0.0002890602555378763	0
1.51	-116.674807781373	752.5251669167967	-29.65778896325515	1.463562320342485	0	-0.3755877899038534	59.3228123578665	175.7707435044144	-12.35239588646192	1.016985677691356	0	-0.5432072936546233	0	0.9300256852039439	0	0	-0.0002273432684365417	0
1.515	-119.5005142641993	763.1921197871866	-37.14637844267339	1.468078640011572	0	-0.3733316081407152	53.28922119910681	171.5759398228636	-12.066505215981	1.017605692016853	0	-0.5431392308551578	0	1.239465955662936	0	0	-0.0002059729180245995	0
1.52	-121.3470477310873	769.8442947919007	-44.86438200864792	1.472394517047032	0	-0.3714492709881139	46.70877193182705	168.1990585934312	-10.79149058008953	1.018281041828285	0	-0.5430616447596393	0	1.605914396700058	0	0	-0.0001819256131998515	0
1.525	-121.8942253904107	774.9518156741516	-51.67927160115627	1.476477542940702	0	-0.369970806227408	39.94581106033152	163.9652216244171	-9.118590052572284	1.019029104292249	0	-0.5429979269413984	0	1.84347876635222	0	0	-0.0001064905804479821	0
1.53	-121.4922064635521	780.9996213136028	-57.61393716550961	1.480510453899781	0	-0.3687399856726104	34.09142356988906	155.7258695577993	-7.636611359820209	1.019890464754465	0	-0.5429565557822112	0	1.763179618017986	0	0	-2.535453271246269e-05	0
1.535	-120.3162986042602	789.2642452913998	-62.58690655040618	1.48461578535885	0	-0.367575849305346	28.20037299456578	141.4189235746855	-6.340186174762592	1.020855720983479	0	-0.5429330819040136	0	1.479147267177652	0	0	-1.305135798546075e-06	0
1.54	-118.3204179614207	798.5712902355563	-66.28332589715266	1.488771210773487	0	-0.3664385061196511	21.58801707698256	120.8642633832343	-5.701429384880727	1.021923509816431	0	-0.5429304398224269	0	1.089289181166492	0	0	-9.828818647861226e-09	0
1.545	-115.7012270459733	808.2761635151401	-68.78183484972108	1.492907460998661	0	-0.3654428070841868	14.53980937790055	95.44396321017391	-4.828348780865436	1.023104284056471	0	-0.5429183166537078	0	0.5618444923245534	0	0	-1.34896538384055e-11	0
1.55	-112.3317689742383	819.7710476550371	-70.298451756708	1.496968880505911	0	-0.3647116706634843	6.759297589571005	68.88114363562929	-3.619046407980552	1.024370941686041	0	-0.5428764249488655	0	-0.1166470255118526	0	0	-8.881784197001252e-15	0
1.555	-108.6298839104215	833.3994111109315	-70.37819386683655	1.500900254529656	0	-0.3642643908125906	-2.521844373156355	43.10506701073209	-5.263830143678854	1.025640210031461	0	-0.5429337107962419	0	-0.8590776175683033	0	0	0	0
1.56	-104.7604821160622	848.0378103761111	-69.17408224176448	1.504466808209892	0	-0.3640538805425538	-9.785776654496091	18.91944963380701	-6.800164719765369	1.026967749170794	0	-0.5430310612295497	0	-1.480771811212136	0	0	0	0
1.565	-100.4238855031683	862.1115366007398	-67.49630119445492	1.50745264575521	0	-0.3639829514059052	-0.4943920657908472	0.545217364755533	-0.2191154287372188	1.029856079775038	0	-0.5422961322798682	0	-1.87172365558925	0	0	2.775557561562891e-17	0
